# xmcd
#
# Track frame offsets:
#	150
#	21121
#	38326
#	56993
#	80139
#	110095
#	136037
#	154001
#
# Disc length: 2290 seconds
#
# Revision: 0
# Processed by: cddbd v1.5.2PL0 Copyright (c) Steve Scherf et al.
# Submitted via: audiograbber 1.81.01
#
DISCID=6108f008
DTITLE=Сергей Минеев - Послушай, сын мой...
DYEAR=2001
DGENRE=Ballad
TTITLE0=1 Послушай сын мой
TTITLE1=2 Вижу много воды 
TTITLE2=3 Врем - бежит
TTITLE3=4 Либо  небеса либо ад 
TTITLE4=5 - Суд
TTITLE5=6 Божий путь 
TTITLE6=7 Я открываю дверь 
TTITLE7=8 Слышу плачь 
EXTD=
EXTT0=
EXTT1=
EXTT2=
EXTT3=
EXTT4=
EXTT5=
EXTT6=
EXTT7=
PLAYORDER=
